<?xml version="1.0" standalone="no"?>
<!DOCTYPE svg PUBLIC "-//W3C//DTD SVG 20010904//EN"
 "http://www.w3.org/TR/2001/REC-SVG-20010904/DTD/svg10.dtd">
<svg version="1.0" xmlns="http://www.w3.org/2000/svg"
 width="200.046481pt" height="99.837832pt" viewBox="0 0 200.046481 99.837832"
 preserveAspectRatio="xMidYMid meet">
<metadata>
Created by potrace 1.12, written by Peter Selinger 2001-2015
</metadata>
<g transform="translate(0.000000,100.000000) scale(0.100000,-0.100000)"
fill="#000000" stroke="none">
<path d="M60 640 l0 -360 -30 0 -30 0 0 -65 0 -65 175 0 c169 0 175 1 175 20
0 32 28 92 58 124 113 120 314 65 352 -96 l12 -48 320 2 321 3 12 47 c53 210
347 210 400 0 l12 -47 82 -3 81 -3 -2 177 -3 176 -95 42 -95 41 -57 170 c-32
94 -58 187 -58 208 l0 37 -815 0 -815 0 0 -360z m130 189 c0 -27 5 -49 10 -49
6 0 10 25 10 55 0 30 5 55 10 55 6 0 10 -25 10 -55 0 -30 5 -55 10 -55 6 0 10
25 10 55 0 30 5 55 10 55 6 0 10 -25 10 -55 0 -30 5 -55 10 -55 6 0 10 25 10
55 0 30 5 55 10 55 6 0 10 -34 10 -81 0 -72 -2 -81 -20 -86 -19 -5 -20 -14
-20 -118 0 -88 -3 -115 -15 -125 -12 -10 -18 -10 -30 0 -12 10 -15 37 -15 125
0 104 -1 113 -20 118 -18 5 -20 14 -20 87 0 51 4 79 10 75 6 -3 10 -28 10 -56z
m431 50 c127 -43 183 -188 116 -301 -70 -119 -226 -140 -323 -43 -86 87 -85
208 2 292 61 59 131 76 205 52z m273 -5 c23 -23 24 -375 1 -394 -30 -25 -45 5
-45 86 0 59 -3 74 -15 74 -12 0 -15 19 -15 109 0 112 9 141 45 141 7 0 21 -7
29 -16z m782 -156 c20 -62 39 -119 42 -126 3 -10 -25 -12 -134 -10 l-139 3 -3
123 -3 122 100 0 99 0 38 -112z"/>
<path d="M482 810 c-127 -78 -74 -280 73 -280 49 0 102 26 128 62 30 40 34
124 8 166 -29 45 -77 72 -131 72 -27 0 -58 -8 -78 -20z"/>
<path d="M521 300 c-18 -4 -50 -24 -69 -44 -31 -30 -36 -43 -40 -93 -3 -49 0
-64 20 -92 47 -69 131 -89 202 -48 90 51 102 173 24 243 -21 20 -44 30 -88 39
-8 1 -30 -1 -49 -5z m97 -92 c31 -29 30 -81 -3 -113 -50 -51 -135 -17 -135 54
0 81 77 115 138 59z"/>
<path d="M1577 296 c-51 -19 -73 -40 -93 -92 -21 -56 -12 -104 27 -149 57 -65
149 -71 214 -14 123 108 6 310 -148 255z m111 -92 c30 -34 28 -70 -7 -105 -38
-38 -74 -38 -112 0 -33 33 -37 65 -13 99 33 48 92 50 132 6z"/>
</g>
</svg>
