<?xml version="1.0" standalone="no"?>
<!DOCTYPE svg PUBLIC "-//W3C//DTD SVG 20010904//EN"
 "http://www.w3.org/TR/2001/REC-SVG-20010904/DTD/svg10.dtd">
<svg version="1.0" xmlns="http://www.w3.org/2000/svg"
 width="511.789901pt" height="511.905502pt" viewBox="0 0 511.789901 511.905502"
 preserveAspectRatio="xMidYMid meet">
<metadata>
Created by potrace 1.12, written by Peter Selinger 2001-2015
</metadata>
<g transform="translate(-0.105049,511.949426) scale(0.100000,-0.100000)"
fill="#000000" stroke="none">
<path d="M190 5111 c-69 -21 -130 -73 -166 -141 -17 -30 -19 -64 -22 -255 -2
-151 0 -233 9 -263 25 -90 107 -164 200 -180 l44 -8 5 -2079 5 -2080 24 -34
c13 -18 42 -42 65 -52 40 -18 116 -19 2206 -19 2090 0 2166 1 2206 19 23 10
52 34 65 52 l24 34 3 1320 2 1319 104 106 c128 130 150 170 150 265 0 93 -13
116 -145 251 l-109 111 2 394 3 393 44 8 c93 16 175 90 200 180 9 30 11 112 9
263 -3 204 -5 223 -25 261 -31 58 -104 119 -158 133 -51 13 -4703 15 -4745 2z
m2390 -416 l-255 -255 -1047 0 c-575 0 -1054 3 -1063 6 -38 15 -45 55 -45 254
l0 192 29 29 29 29 1304 0 1303 0 -255 -255z m1463 -642 c494 -494 900 -908
903 -921 4 -12 1 -35 -5 -50 -16 -38 -738 -758 -773 -771 -19 -7 -37 -7 -55 0
-38 13 -1781 1755 -1799 1796 -9 22 -11 40 -5 56 11 28 712 741 756 768 17 10
41 19 55 19 20 0 213 -188 923 -897z m878 868 l29 -29 0 -192 c0 -199 -7 -239
-45 -254 -9 -3 -240 -6 -513 -6 l-497 0 -255 255 -255 255 753 0 754 0 29 -29z
m-2761 -658 c0 -5 -7 -30 -16 -58 -17 -55 -12 -121 12 -167 l15 -28 -675 0
c-454 0 -684 -3 -703 -11 -40 -15 -73 -48 -94 -94 -18 -38 -19 -113 -19 -1887
l0 -1848 -125 0 -125 0 0 2050 0 2050 865 0 c476 0 865 -3 865 -7z m2530 -305
l0 -313 -305 305 c-168 168 -305 308 -305 312 0 5 137 8 305 8 l305 0 0 -312z
m-2280 -203 l85 -85 -823 0 -822 0 0 85 0 85 738 0 737 0 85 -85z m340 -340
l85 -85 -993 0 -992 0 0 85 0 85 908 0 907 0 85 -85z m530 -530 c151 -151 272
-275 268 -275 -4 0 -37 11 -74 25 -81 30 -124 31 -180 4 -49 -23 -70 -53 -109
-158 l-28 -74 -36 93 c-43 112 -82 150 -158 157 -40 4 -73 -4 -193 -48 -121
-44 -152 -60 -187 -94 -32 -31 -43 -51 -48 -86 -6 -42 3 -71 103 -340 l110
-294 -207 -5 c-234 -6 -257 -12 -298 -86 -21 -36 -23 -52 -23 -207 0 -182 6
-211 56 -258 22 -21 24 -29 24 -124 l0 -102 -35 -6 c-117 -19 -276 -147 -332
-267 -44 -93 -56 -158 -50 -259 5 -98 31 -175 83 -252 19 -28 34 -53 34 -55 0
-2 -259 -4 -575 -4 l-575 0 0 1488 c0 819 3 1492 7 1495 3 4 488 7 1077 7
l1071 0 275 -275z m1410 -1515 l0 -1200 -125 0 -125 0 0 1077 0 1078 122 122
c68 68 124 123 125 123 2 0 3 -540 3 -1200z m-1618 774 c70 -186 128 -342 128
-346 0 -5 -60 -8 -134 -8 l-133 0 -112 298 c-61 163 -111 302 -111 307 0 11
208 94 225 90 5 -1 67 -154 137 -341z m428 300 c52 -19 98 -38 102 -42 6 -6
-204 -587 -216 -599 -2 -2 -33 78 -70 178 l-68 181 33 86 c91 245 91 244 108
237 9 -4 59 -22 111 -41z m525 -281 c60 -31 112 -36 178 -18 32 8 60 15 62 15
3 0 5 -448 5 -995 l0 -995 -130 0 -130 0 0 523 0 522 34 33 c45 43 56 93 56
249 0 144 -9 188 -47 234 -45 54 -72 59 -288 59 -107 0 -195 3 -195 6 0 4 45
127 99 273 54 146 102 277 106 289 6 22 14 17 108 -76 56 -55 120 -108 142
-119z m-95 -668 l0 -125 -770 0 -770 0 0 125 0 125 770 0 770 0 0 -125z m-90
-815 l0 -510 -536 0 -536 0 26 30 c35 42 82 144 95 208 55 262 -111 531 -366
596 l-48 12 -3 87 -3 87 686 0 685 0 0 -510z m-1309 142 c74 -36 125 -87 161
-160 30 -60 33 -76 33 -152 0 -66 -5 -96 -22 -132 -30 -66 -105 -143 -172
-175 -48 -24 -68 -28 -141 -28 -70 0 -95 5 -140 26 -187 88 -257 321 -148 492
40 62 106 116 171 139 71 25 195 21 258 -10z"/>
<path d="M369 4751 c-31 -31 -36 -59 -17 -94 22 -42 38 -46 161 -47 112 0 119
1 142 25 17 16 25 35 25 57 -1 70 -38 88 -175 88 -104 0 -107 -1 -136 -29z"/>
<path d="M900 4767 c-54 -27 -61 -99 -13 -137 25 -19 42 -20 568 -20 l543 0
27 32 c32 38 29 81 -11 116 l-25 22 -532 0 c-409 0 -538 -3 -557 -13z"/>
<path d="M3020 4617 c-49 -16 -133 -102 -148 -153 -26 -90 -7 -185 53 -256 34
-40 40 -70 21 -106 -16 -32 -65 -55 -94 -45 -64 22 -80 86 -37 149 29 43 30
55 10 93 -18 36 -62 55 -96 42 -36 -13 -86 -74 -98 -118 -27 -98 -5 -198 59
-261 55 -55 106 -76 185 -77 59 0 78 5 122 29 144 80 175 257 68 395 -41 52
-45 89 -12 126 42 49 128 28 142 -35 5 -23 0 -41 -19 -74 -32 -55 -33 -87 -3
-122 65 -75 177 12 193 151 18 147 -101 276 -250 274 -34 -1 -77 -6 -96 -12z"/>
<path d="M3345 3944 c-187 -85 -348 -164 -357 -176 -24 -27 -23 -79 2 -106 35
-37 64 -38 143 -3 l71 32 93 -93 92 -93 -29 -65 c-37 -82 -38 -114 -4 -145 33
-31 80 -33 110 -4 29 27 334 697 334 733 0 38 -41 76 -82 75 -20 0 -165 -60
-373 -155z m193 -112 c-1 -5 -18 -43 -37 -85 l-35 -77 -49 47 -48 48 78 37
c81 38 97 43 91 30z"/>
<path d="M3783 3478 c-145 -145 -266 -274 -270 -287 -9 -38 21 -83 128 -186
87 -84 102 -95 134 -95 49 0 85 36 85 85 0 30 -10 46 -69 108 l-70 72 220 221
c213 214 219 221 219 260 0 51 -31 84 -80 84 -31 0 -57 -23 -297 -262z"/>
<path d="M4148 3123 c-141 -141 -262 -269 -269 -285 -18 -44 2 -76 116 -187
95 -93 107 -101 143 -101 50 0 82 32 82 83 0 32 -9 47 -70 110 l-69 73 59 59
60 59 73 -72 c63 -62 77 -72 108 -72 24 0 42 7 56 23 47 52 37 86 -53 177
l-64 66 60 59 59 59 75 -72 c87 -85 117 -92 168 -42 49 50 37 76 -95 208 -100
98 -118 112 -147 112 -31 0 -57 -23 -292 -257z"/>
<path d="M1586 2901 l-171 -169 -57 -4 c-42 -3 -66 -12 -92 -32 -70 -53 -71
-57 -71 -381 0 -159 3 -302 7 -317 11 -38 57 -88 95 -104 26 -11 127 -14 500
-14 466 0 468 0 507 23 25 14 48 39 63 66 23 43 23 50 23 333 0 314 -2 329
-56 380 -37 34 -74 48 -127 48 -41 0 -46 4 -212 170 -154 154 -173 170 -204
170 -31 0 -51 -16 -205 -169z m274 -106 l64 -65 -134 0 -134 0 64 65 c35 36
67 65 70 65 3 0 35 -29 70 -65z m360 -490 l0 -255 -425 0 -425 0 0 255 0 255
425 0 425 0 0 -255z"/>
<path d="M2320 761 c-85 -26 -151 -93 -176 -176 -9 -32 -13 -68 -9 -83 25
-101 154 -94 168 10 7 51 43 88 86 88 43 0 81 35 81 75 0 47 -8 64 -41 80 -30
16 -69 18 -109 6z"/>
</g>
</svg>
