<?xml version="1.0" standalone="no"?>
<!DOCTYPE svg PUBLIC "-//W3C//DTD SVG 20010904//EN"
 "http://www.w3.org/TR/2001/REC-SVG-20010904/DTD/svg10.dtd">
<svg version="1.0" xmlns="http://www.w3.org/2000/svg"
 width="158.021488pt" height="147.004621pt" viewBox="0 0 158.021488 147.004621"
 preserveAspectRatio="xMidYMid meet">
<metadata>
Created by potrace 1.12, written by Peter Selinger 2001-2015
</metadata>
<g transform="translate(-0.365281,147.004621) scale(0.100000,-0.100000)"
fill="#000000" stroke="none">
<path d="M746 1449 c-36 -28 -37 -89 -1 -125 l25 -25 0 -224 0 -225 -60 0 -60
0 0 160 0 160 -207 0 -207 0 -21 25 c-12 16 -34 28 -57 32 -32 5 -41 1 -68
-25 -84 -84 32 -201 118 -119 l28 27 172 0 172 0 0 -130 0 -130 -175 0 -175 0
0 -250 0 -250 -55 0 -55 0 0 194 c0 178 2 196 18 208 49 34 51 102 5 138 -73
57 -172 -25 -129 -108 8 -16 22 -32 30 -35 13 -5 16 -41 18 -234 l3 -228 83
-3 82 -3 0 -59 0 -60 -65 0 c-36 0 -66 -4 -66 -10 -5 -34 -6 -118 -2 -132 4
-17 46 -18 699 -18 l694 0 0 80 0 80 -65 0 -65 0 0 60 0 59 83 3 82 3 3 435 2
434 27 28 c56 59 19 148 -62 148 -25 0 -40 -8 -59 -31 -37 -44 -31 -94 16
-127 17 -12 18 -36 18 -418 l0 -404 -55 0 -55 0 0 250 0 249 -157 3 -158 3 -3
88 -3 87 75 0 c67 0 78 -3 100 -25 54 -54 146 -17 146 60 0 77 -97 116 -150
60 -21 -22 -31 -25 -124 -27 l-101 -3 -5 -120 -5 -120 -67 -3 -68 -3 0 227 0
227 25 23 c18 16 25 33 25 59 0 74 -84 111 -144 64z m494 -1004 l0 -285 -140
0 -140 0 0 -35 0 -35 -164 0 -165 0 -3 33 -3 32 -137 3 -138 3 0 284 0 285
445 0 445 0 0 -285z"/>
<path d="M797 650 c-20 -23 -54 -25 -81 -5 -16 12 -22 12 -47 -1 -23 -11 -29
-21 -29 -47 0 -39 -15 -57 -46 -57 -26 0 -29 -4 -38 -46 -6 -26 -3 -32 19 -42
29 -14 33 -46 8 -74 -15 -17 -15 -21 0 -53 15 -31 19 -33 50 -28 37 6 53 -7
59 -47 2 -18 12 -27 37 -34 30 -9 36 -7 49 12 16 25 52 29 82 10 31 -20 76 9
72 46 -4 34 13 56 44 56 43 0 59 63 24 95 -24 22 -25 37 -6 74 13 25 13 31 0
50 -9 12 -26 21 -40 21 -39 0 -64 18 -64 46 0 17 -8 27 -26 34 -36 14 -47 13
-67 -10z m68 -112 c61 -48 66 -142 9 -187 -106 -83 -250 31 -189 149 31 60
127 80 180 38z"/>
<path d="M740 455 c0 -60 9 -80 25 -55 11 17 25 11 37 -15 6 -14 17 -25 25
-25 11 0 11 5 -2 30 -19 36 -19 40 -1 40 31 0 23 18 -23 53 -27 20 -51 37 -55
37 -3 0 -6 -29 -6 -65z"/>
</g>
</svg>
