<?xml version="1.0" standalone="no"?>
<!DOCTYPE svg PUBLIC "-//W3C//DTD SVG 20010904//EN"
 "http://www.w3.org/TR/2001/REC-SVG-20010904/DTD/svg10.dtd">
<svg version="1.0" xmlns="http://www.w3.org/2000/svg"
 width="340.000000pt" height="342.000000pt" viewBox="0 0 340.000000 342.000000"
 preserveAspectRatio="xMidYMid meet">

<g transform="translate(0.000000,342.000000) scale(0.100000,-0.100000)"
fill="#000000" stroke="none">
<path d="M1580 3413 c-246 -24 -492 -96 -680 -200 -244 -135 -489 -367 -630
-598 -102 -166 -179 -359 -222 -558 -19 -89 -22 -132 -22 -332 0 -199 3 -243
22 -330 31 -142 76 -273 138 -402 l54 -112 -118 -433 c-66 -238 -116 -434
-112 -436 4 -1 205 49 447 113 l440 115 94 -44 c115 -53 251 -98 384 -128 87
-19 129 -22 330 -22 203 -1 242 2 335 22 484 105 885 395 1134 820 92 157 178
403 205 587 64 434 -41 874 -297 1235 -86 122 -270 306 -392 392 -183 130
-412 231 -621 277 -158 34 -353 48 -489 34z m373 -309 c497 -84 924 -454 1082
-938 48 -146 68 -277 68 -441 0 -367 -132 -696 -386 -962 -198 -206 -433 -339
-716 -404 -129 -30 -365 -36 -506 -14 -172 27 -374 99 -517 186 l-37 22 -256
-67 c-141 -37 -259 -65 -262 -62 -3 2 26 116 63 252 l68 247 -23 41 c-161 284
-221 492 -221 759 0 233 43 416 145 622 77 155 160 268 286 390 323 311 763
445 1212 369z"/>
<path d="M1039 2487 c-43 -26 -112 -104 -138 -155 -55 -108 -67 -258 -30 -378
84 -271 411 -658 714 -844 142 -88 395 -183 515 -195 133 -13 270 32 370 122
53 48 74 90 91 188 18 102 18 102 -195 206 -200 98 -237 107 -268 68 -89 -114
-146 -179 -163 -187 -40 -18 -225 72 -351 172 -125 98 -294 309 -294 366 0 11
25 50 55 85 59 70 85 114 85 142 -1 33 -159 398 -181 416 -34 27 -163 24 -210
-6z"/>
</g>
</svg>
